<svg xmlns="http://www.w3.org/2000/svg" width="1000" height="380" viewBox="0 0 1000 380" role="img" aria-labelledby="title desc">
  <title id="title">How agent-run-supervisor works</title>
  <desc id="desc">Caller supplies role, prompt, and cwd; agent-run-supervisor validates the role, compiles policy and argv, supervises ACP/acpx, observes the external AGENT, and writes redacted local artifacts.</desc>
  <defs>
    <linearGradient id="bg" x1="0" x2="1" y1="0" y2="1">
      <stop offset="0" stop-color="#ffffff"/>
      <stop offset="1" stop-color="#f6f8fa"/>
    </linearGradient>
    <linearGradient id="supervisor" x1="0" x2="1">
      <stop offset="0" stop-color="#ecfeff"/>
      <stop offset="1" stop-color="#eff6ff"/>
    </linearGradient>
    <filter id="shadow" x="-20%" y="-20%" width="140%" height="140%">
      <feDropShadow dx="0" dy="8" stdDeviation="10" flood-color="#0f172a" flood-opacity="0.10"/>
    </filter>
    <marker id="arrow" viewBox="0 0 10 10" refX="9" refY="5" markerWidth="8" markerHeight="8" orient="auto-start-reverse">
      <path d="M 0 0 L 10 5 L 0 10 z" fill="#2563eb"/>
    </marker>
    <marker id="arrowSlate" viewBox="0 0 10 10" refX="9" refY="5" markerWidth="8" markerHeight="8" orient="auto-start-reverse">
      <path d="M 0 0 L 10 5 L 0 10 z" fill="#64748b"/>
    </marker>
    <style>
      .label{font-family:-apple-system,BlinkMacSystemFont,"Segoe UI",sans-serif;fill:#0f172a;font-weight:700;font-size:18px}
      .sub{font-family:-apple-system,BlinkMacSystemFont,"Segoe UI",sans-serif;fill:#475569;font-size:13px}
      .tiny{font-family:-apple-system,BlinkMacSystemFont,"Segoe UI",sans-serif;fill:#64748b;font-size:12px}
      .note{font-family:-apple-system,BlinkMacSystemFont,"Segoe UI",sans-serif;fill:#334155;font-size:12px;font-weight:600}
    </style>
  </defs>
  <rect x="1" y="1" width="998" height="378" rx="26" fill="url(#bg)" stroke="#d0d7de"/>
  <path d="M74 312 C222 244 322 312 480 262 C650 208 746 266 924 202" fill="none" stroke="#38bdf8" stroke-opacity="0.18" stroke-width="5"/>
  <path d="M80 334 C246 282 352 344 510 296 C684 244 788 302 920 238" fill="none" stroke="#2563eb" stroke-opacity="0.11" stroke-width="3"/>

  <g filter="url(#shadow)">
    <rect x="36" y="70" width="176" height="116" rx="18" fill="#ffffff" stroke="#94a3b8"/>
    <text x="124" y="108" text-anchor="middle" class="label">Caller</text>
    <text x="124" y="132" text-anchor="middle" class="sub">role_id · prompt · cwd</text>
    <text x="124" y="154" text-anchor="middle" class="tiny">operator / platform code</text>
  </g>

  <g filter="url(#shadow)">
    <rect x="278" y="48" width="258" height="160" rx="22" fill="url(#supervisor)" stroke="#0891b2" stroke-width="1.5"/>
    <text x="407" y="86" text-anchor="middle" class="label">agent-run-supervisor</text>
    <text x="407" y="115" text-anchor="middle" class="sub">validate role · compile policy + argv</text>
    <text x="407" y="138" text-anchor="middle" class="sub">supervise · parse · classify</text>
    <text x="407" y="161" text-anchor="middle" class="sub">redact before writing artifacts</text>
    <text x="407" y="188" text-anchor="middle" class="tiny">supervisor status only</text>
  </g>

  <g filter="url(#shadow)">
    <rect x="602" y="70" width="176" height="116" rx="18" fill="#f8fafc" stroke="#64748b" stroke-dasharray="7 5"/>
    <text x="690" y="108" text-anchor="middle" class="label">ACP/acpx</text>
    <text x="690" y="132" text-anchor="middle" class="sub">boundary</text>
    <text x="690" y="154" text-anchor="middle" class="tiny">exec ✓ · session planned</text>
  </g>

  <g filter="url(#shadow)">
    <rect x="826" y="70" width="138" height="116" rx="18" fill="#fff7ed" stroke="#fb923c"/>
    <text x="895" y="108" text-anchor="middle" class="label">External</text>
    <text x="895" y="132" text-anchor="middle" class="label">AGENT</text>
    <text x="895" y="156" text-anchor="middle" class="tiny">Codex · Claude Code</text>
  </g>

  <g filter="url(#shadow)">
    <rect x="346" y="260" width="314" height="82" rx="20" fill="#f0fdf4" stroke="#22c55e"/>
    <text x="503" y="292" text-anchor="middle" class="label">Redacted local artifacts</text>
    <text x="503" y="316" text-anchor="middle" class="sub">result.json · events · redaction report</text>
    <text x="503" y="335" text-anchor="middle" class="tiny">business_verdict = null</text>
  </g>

  <path d="M212 128 L278 128" fill="none" stroke="#2563eb" stroke-width="2.8" marker-end="url(#arrow)"/>
  <text x="245" y="112" text-anchor="middle" class="note">role + prompt + cwd</text>

  <path d="M536 128 L602 128" fill="none" stroke="#2563eb" stroke-width="2.8" marker-end="url(#arrow)"/>
  <text x="569" y="112" text-anchor="middle" class="note">argv list + policy</text>

  <path d="M778 118 L826 118" fill="none" stroke="#64748b" stroke-width="2.4" stroke-dasharray="7 5" marker-end="url(#arrowSlate)"/>
  <path d="M826 146 L778 146" fill="none" stroke="#64748b" stroke-width="2.4" stroke-dasharray="7 5" marker-end="url(#arrowSlate)"/>
  <text x="802" y="96" text-anchor="middle" class="tiny">one AGENT</text>
  <text x="802" y="169" text-anchor="middle" class="tiny">protocol output</text>

  <path d="M470 208 C486 228 498 238 503 260" fill="none" stroke="#16a34a" stroke-width="2.8" marker-end="url(#arrow)"/>
  <text x="574" y="236" text-anchor="middle" class="note">auditable evidence</text>

  <path d="M346 309 C210 310 126 252 124 186" fill="none" stroke="#16a34a" stroke-width="2.4" stroke-dasharray="8 5" marker-end="url(#arrow)"/>
</svg>
